<?xml version="1.0" encoding="utf-8"?>
<svg width="205" height="32" viewBox="0 0 205 32" fill="none" xmlns="http://www.w3.org/2000/svg">
  <defs/>
  <path d="M20.6197 31.68C7.45969 31.68 0.0196877 25.64 0.0196877 15.96C0.0196877 5.84 8.25969 0.439998 21.2597 0.439998C25.8997 0.439998 31.2197 1.12 37.6197 3.76C37.3397 6.08 37.3397 7.8 37.6197 10.12C31.1797 6.24 25.6197 5.28 21.6197 5.24C12.6597 5.2 6.97969 9.08 6.97969 15.96C6.97969 22.44 11.7797 26.84 21.3797 26.84C27.0597 26.84 32.6197 25.2 37.6197 20.48C37.3797 22.84 37.7797 25.08 38.0597 26.68C33.5397 29.96 28.3797 31.68 20.6197 31.68ZM77.8509 31H70.5709C70.7709 28 70.8909 23.8 70.9309 19.36C64.2509 18.96 57.1309 19 50.5309 19.4C50.5709 23.84 50.6909 28.04 50.9309 31H43.6509C44.1309 23.52 44.1309 8.68 43.6509 1.2C46.1309 1.56 48.5309 1.6 50.8509 1.2C50.6509 4.6 50.5309 9.56 50.4909 14.64C57.0509 15.04 64.1709 15.08 70.9309 14.68C70.8909 9.6 70.7709 4.64 70.5709 1.2C73.0509 1.56 75.4509 1.6 77.7309 1.2C77.2909 8.68 77.2909 23.6 77.8509 31ZM103.265 31.6C90.6247 31.6 83.1447 25.88 83.1447 16.04C83.1447 6.16 90.6247 0.439998 103.265 0.439998C115.905 0.439998 123.345 6.2 123.345 16.04C123.345 25.88 115.905 31.6 103.265 31.6ZM103.265 27.12C111.505 27.12 116.465 23.16 116.465 16.2C116.465 9.16 111.505 4.96 103.265 4.96C94.9447 4.96 90.1047 9.16 90.1047 16.2C90.1047 23.16 94.9447 27.12 103.265 27.12ZM136.132 31H128.612C129.092 23.52 129.092 8.64 128.612 1.2C135.492 1.32 139.692 1.08 146.092 1.08C157.252 1.08 162.492 3.84 162.492 9.8C162.492 17.4 153.452 18.68 149.332 18.68V19.2C157.252 20.56 161.692 26.6 163.732 31H154.252C152.892 23.48 149.132 20.52 140.892 19.92C138.972 19.8 137.372 19.76 135.692 19.76C135.772 25.2 135.892 27.88 136.132 31ZM135.652 15.6C138.412 15.68 141.612 15.88 144.692 15.88C151.492 15.88 155.172 14.44 155.172 10.52C155.172 6.88 151.572 5.6 145.892 5.6C142.052 5.6 138.172 5.72 135.772 5.72C135.692 8.8 135.652 12.04 135.652 15.6ZM204.25 31H196.05C195.29 29 194.53 26.88 193.69 24.76C188.53 24.6 181.41 24.6 176.21 24.72C175.29 26.92 174.45 29.08 173.65 31H165.81C170.65 21.08 175.13 11.12 179.33 1.2C182.21 1.56 187.77 1.72 190.65 1.2C194.85 11.12 199.41 21.08 204.25 31ZM177.89 20.64C182.17 20.76 187.77 20.76 192.05 20.64C189.85 15.12 187.41 9.6 184.85 4.88C183.21 7.92 180.53 14.24 177.89 20.64Z" style="fill: rgb(255, 255, 255);"/>
</svg>